<svg width="25" height="24" viewBox="0 0 25 24" fill="none" xmlns="http://www.w3.org/2000/svg">
<g clip-path="url(#clip0_217_1349)">
<path d="M12.5 2C6.98001 2 2.50001 6.48 2.50001 12C2.50001 17.52 6.98001 22 12.5 22C18.02 22 22.5 17.52 22.5 12C22.5 6.48 18.02 2 12.5 2ZM12.5 5C14.16 5 15.5 6.34 15.5 8C15.5 9.66 14.16 11 12.5 11C10.84 11 9.50001 9.66 9.50001 8C9.50001 6.34 10.84 5 12.5 5ZM12.5 19.2C10 19.2 7.79001 17.92 6.50001 15.98C6.53001 13.99 10.5 12.9 12.5 12.9C14.49 12.9 18.47 13.99 18.5 15.98C17.21 17.92 15 19.2 12.5 19.2Z" fill="white"/>
</g>
<defs>
<clipPath id="clip0_217_1349">
<rect width="24" height="24" fill="white" transform="translate(0.5)"/>
</clipPath>
</defs>
</svg>
