<svg width="16" height="16" viewBox="0 0 16 16" fill="none" xmlns="http://www.w3.org/2000/svg">
<g clip-path="url(#clip0_122_2257)">
<path fill-rule="evenodd" clip-rule="evenodd" d="M7.79542 3.28231L4.27428 6.76231L14.7817 6.81031C14.9425 6.81091 15.1016 6.84321 15.2499 6.90536C15.3981 6.96751 15.5327 7.0583 15.6459 7.17252C15.759 7.28674 15.8486 7.42215 15.9093 7.57101C15.9701 7.71987 16.0009 7.87925 16 8.04003C15.9992 8.20071 15.9668 8.35968 15.9046 8.50783C15.8424 8.65598 15.7516 8.79042 15.6374 8.90345C15.5232 9.01649 15.3878 9.10591 15.239 9.16661C15.0902 9.2273 14.931 9.25807 14.7703 9.25717L4.26513 9.21031L7.73942 12.7257C7.85266 12.8398 7.94231 12.975 8.00326 13.1237C8.06421 13.2724 8.09525 13.4316 8.09461 13.5923C8.09398 13.753 8.06167 13.912 7.99955 14.0602C7.93743 14.2084 7.8467 14.3429 7.73256 14.456C7.50179 14.6844 7.18983 14.8118 6.86519 14.8103C6.54055 14.8088 6.22978 14.6785 6.00113 14.448L0.286847 8.67774C0.0999938 8.48784 -0.0037739 8.2315 -0.00163066 7.96509C0.000512589 7.69868 0.108391 7.44404 0.298276 7.25717L6.07313 1.54288C6.30371 1.31462 6.61548 1.18723 6.93993 1.18873C7.26438 1.19023 7.57497 1.32049 7.80342 1.55088C7.91662 1.66508 8.00621 1.80045 8.06708 1.94928C8.12794 2.09811 8.15888 2.25747 8.15814 2.41826C8.1574 2.57905 8.12498 2.73811 8.06275 2.88637C8.00051 3.03463 7.90967 3.16917 7.79542 3.28231Z" fill="#123144"/>
</g>
<defs>
<clipPath id="clip0_122_2257">
<rect width="16" height="16" fill="white"/>
</clipPath>
</defs>
</svg>
