<svg width="16" height="16" viewBox="0 0 16 16" fill="none" xmlns="http://www.w3.org/2000/svg">
<g clip-path="url(#clip0_122_1906)">
<path d="M12.6667 0H3.33337C2.96671 0 2.66671 0.3 2.66671 0.666667C2.66671 1.03333 2.96671 1.33333 3.33337 1.33333H12.6667C13.0334 1.33333 13.3334 1.03333 13.3334 0.666667C13.3334 0.3 13.0334 0 12.6667 0ZM3.33337 16H12.6667C13.0334 16 13.3334 15.7 13.3334 15.3333C13.3334 14.9667 13.0334 14.6667 12.6667 14.6667H3.33337C2.96671 14.6667 2.66671 14.9667 2.66671 15.3333C2.66671 15.7 2.96671 16 3.33337 16ZM13.3334 2.66667H2.66671C1.93337 2.66667 1.33337 3.26667 1.33337 4V12C1.33337 12.7333 1.93337 13.3333 2.66671 13.3333H13.3334C14.0667 13.3333 14.6667 12.7333 14.6667 12V4C14.6667 3.26667 14.0667 2.66667 13.3334 2.66667ZM8.00004 4.5C8.82671 4.5 9.50004 5.17333 9.50004 6C9.50004 6.82667 8.82671 7.5 8.00004 7.5C7.17337 7.5 6.50004 6.82667 6.50004 6C6.50004 5.17333 7.17337 4.5 8.00004 4.5ZM11.3334 11.3333H4.66671V10.3333C4.66671 9.22 6.88671 8.66667 8.00004 8.66667C9.11337 8.66667 11.3334 9.22 11.3334 10.3333V11.3333Z" fill="white"/>
</g>
<defs>
<clipPath id="clip0_122_1906">
<rect width="16" height="16" fill="white"/>
</clipPath>
</defs>
</svg>
