<svg width="25" height="24" viewBox="0 0 25 24" fill="none" xmlns="http://www.w3.org/2000/svg">
<g clip-path="url(#clip0_119_1120)">
<path d="M22.89 12.19C23.23 11.75 23.14 11.12 22.7 10.79L13.1 3.46C12.74 3.19 12.24 3.19 11.89 3.46L6.49999 7.58V7C6.49999 6.45 6.04999 6 5.49999 6C4.94999 6 4.49999 6.45 4.49999 7V9.11L2.28999 10.79C1.84999 11.12 1.76999 11.75 2.09999 12.19C2.43999 12.63 3.05999 12.71 3.49999 12.38L4.49999 11.62V20C4.49999 20.55 4.94999 21 5.49999 21H11.5V16C11.5 15.45 11.95 15 12.5 15C13.05 15 13.5 15.45 13.5 16V21H19.5C20.05 21 20.5 20.55 20.5 20V11.62L21.49 12.38C21.93 12.72 22.56 12.63 22.89 12.19ZM5.76999 5C5.02999 5 4.50999 4.2 4.86999 3.55C5.38999 2.62 6.36999 2 7.49999 2C7.87999 2 8.21999 1.78 8.38999 1.47C8.53999 1.16 8.88999 1 9.22999 1C9.96999 1 10.49 1.8 10.13 2.45C9.60999 3.38 8.62999 4 7.49999 4C7.11999 4 6.77999 4.22 6.60999 4.53C6.45999 4.84 6.10999 5 5.76999 5Z" fill="url(#paint0_linear_119_1120)"/>
</g>
<defs>
<linearGradient id="paint0_linear_119_1120" x1="1.17878" y1="-10.4584" x2="29.8565" y2="-9.06053" gradientUnits="userSpaceOnUse">
<stop stop-color="#FF9F0A"/>
<stop offset="1" stop-color="#F87D39"/>
</linearGradient>
<clipPath id="clip0_119_1120">
<rect width="24" height="24" fill="white" transform="translate(0.5)"/>
</clipPath>
</defs>
</svg>
