<svg width="24" height="24" viewBox="0 0 24 24" fill="none" xmlns="http://www.w3.org/2000/svg">
<g clip-path="url(#clip0_217_1356)">
<path fill-rule="evenodd" clip-rule="evenodd" d="M10.8 3.64994L4.8 8.14994C4.3 8.52994 4 9.11994 4 9.74994V18.7499C4 19.8499 4.9 20.7499 6 20.7499H18C19.1 20.7499 20 19.8499 20 18.7499V9.74994C20 9.11994 19.7 8.52994 19.2 8.14994L13.2 3.64994C12.49 3.11994 11.51 3.11994 10.8 3.64994ZM12 14C10.8954 14 10 14.8954 10 16V17C10 18.1046 10.8954 19 12 19C13.1046 19 14 18.1046 14 17V16C14 14.8954 13.1046 14 12 14Z" fill="white"/>
</g>
<defs>
<clipPath id="clip0_217_1356">
<rect width="24" height="24" fill="white"/>
</clipPath>
</defs>
</svg>
