<svg width="24" height="24" viewBox="0 0 24 24" fill="none" xmlns="http://www.w3.org/2000/svg">
<g clip-path="url(#clip0_119_1108)">
<path d="M2 22C2 21.45 2.45 21 3 21C3.87 21 4.73 20.76 5.53 20.3C5.82 20.14 6.18 20.13 6.47 20.3C8.06 21.2 9.95 21.2 11.53 20.3C11.82 20.14 12.18 20.14 12.47 20.3C14.06 21.2 15.95 21.2 17.53 20.3C17.82 20.14 18.18 20.14 18.47 20.3C19.27 20.76 20.13 21 21 21C21.55 21 22 21.45 22 22C22 22.55 21.55 23 21 23C19.97 23 18.94 22.75 18 22.25C16.08 23.27 13.82 23.25 11.91 22.2C10.12 23.07 7.99 23.18 6.33 22.06C5.3 22.69 4.15 23 3 23C2.45 23 2 22.55 2 22ZM12 5.50001C10.9 5.50001 10 6.40001 10 7.50001C10 8.60001 10.9 9.50001 12 9.50001C13.1 9.50001 14 8.60001 14 7.50001C14 6.40001 13.1 5.50001 12 5.50001ZM21.47 18.45C21.05 18.59 20.57 18.73 20.06 18.87C19.53 18.72 19.03 18.44 18.61 18.1C18.26 17.81 17.74 17.81 17.38 18.1C16.72 18.63 15.9 19 15 19C14.1 19 13.28 18.63 12.61 18.09C12.26 17.81 11.74 17.81 11.39 18.09C10.72 18.63 9.9 19 9 19C8.1 19 7.28 18.63 6.61 18.09C6.26 17.8 5.74 17.81 5.38 18.09C4.95 18.44 4.46 18.71 3.93 18.86C3.42 18.72 2.95 18.58 2.53 18.44C1.61 18.14 1.61 16.84 2.53 16.54C3.74 16.15 5.32 15.72 7.13 15.41L8.48 11.24C8.79 10.29 9.8 9.77001 10.75 10.08C10.84 10.11 10.94 10.15 11.02 10.19L13.49 11.49L16.33 9.99001L17.98 6.28001L17.62 5.35001C17.52 5.10001 17.53 4.83001 17.64 4.59001L18.38 2.91001C18.6 2.40001 19.2 2.18001 19.7 2.40001L21.07 3.01001C21.57 3.24001 21.8 3.83001 21.57 4.33001L20.82 6.01001C20.71 6.25001 20.51 6.44001 20.26 6.54001L19.36 6.90001L15.64 15.24C17.97 15.54 19.99 16.08 21.46 16.55C22.39 16.85 22.4 18.15 21.47 18.45ZM15.02 12.96L14.43 13.27C13.85 13.58 13.15 13.58 12.57 13.27L11.76 12.84L11.05 15.01C11.36 15.01 11.68 15 12 15C12.71 15 13.4 15.03 14.07 15.08L15.02 12.96Z" fill="url(#paint0_linear_119_1108)"/>
</g>
<defs>
<linearGradient id="paint0_linear_119_1108" x1="1.1511" y1="-9.53667" x2="28.6518" y2="-8.29429" gradientUnits="userSpaceOnUse">
<stop stop-color="#FF9F0A"/>
<stop offset="1" stop-color="#F87D39"/>
</linearGradient>
<clipPath id="clip0_119_1108">
<rect width="24" height="24" fill="white"/>
</clipPath>
</defs>
</svg>
