<svg width="16" height="16" viewBox="0 0 16 16" fill="none" xmlns="http://www.w3.org/2000/svg">
<g clip-path="url(#clip0_122_1930)">
<path d="M7.99337 1.33337C4.31337 1.33337 1.33337 4.32004 1.33337 8.00004C1.33337 11.68 4.31337 14.6667 7.99337 14.6667C11.68 14.6667 14.6667 11.68 14.6667 8.00004C14.6667 4.32004 11.68 1.33337 7.99337 1.33337ZM12.6134 5.33337H10.6467C10.4334 4.50004 10.1267 3.70004 9.72671 2.96004C10.9534 3.38004 11.9734 4.23337 12.6134 5.33337ZM8.00004 2.69337C8.55337 3.49337 8.98671 4.38004 9.27337 5.33337H6.72671C7.01337 4.38004 7.44671 3.49337 8.00004 2.69337ZM2.84004 9.33337C2.73337 8.90671 2.66671 8.46004 2.66671 8.00004C2.66671 7.54004 2.73337 7.09337 2.84004 6.66671H5.09337C5.04004 7.10671 5.00004 7.54671 5.00004 8.00004C5.00004 8.45337 5.04004 8.89337 5.09337 9.33337H2.84004ZM3.38671 10.6667H5.35337C5.56671 11.5 5.87337 12.3 6.27337 13.04C5.04671 12.62 4.02671 11.7734 3.38671 10.6667ZM5.35337 5.33337H3.38671C4.02671 4.22671 5.04671 3.38004 6.27337 2.96004C5.87337 3.70004 5.56671 4.50004 5.35337 5.33337ZM8.00004 13.3067C7.44671 12.5067 7.01337 11.62 6.72671 10.6667H9.27337C8.98671 11.62 8.55337 12.5067 8.00004 13.3067ZM9.56004 9.33337H6.44004C6.38004 8.89337 6.33337 8.45337 6.33337 8.00004C6.33337 7.54671 6.38004 7.10004 6.44004 6.66671H9.56004C9.62004 7.10004 9.66671 7.54671 9.66671 8.00004C9.66671 8.45337 9.62004 8.89337 9.56004 9.33337ZM9.72671 13.04C10.1267 12.3 10.4334 11.5 10.6467 10.6667H12.6134C11.9734 11.7667 10.9534 12.62 9.72671 13.04ZM10.9067 9.33337C10.96 8.89337 11 8.45337 11 8.00004C11 7.54671 10.96 7.10671 10.9067 6.66671H13.16C13.2667 7.09337 13.3334 7.54004 13.3334 8.00004C13.3334 8.46004 13.2667 8.90671 13.16 9.33337H10.9067Z" fill="white"/>
</g>
<defs>
<clipPath id="clip0_122_1930">
<rect width="16" height="16" fill="white"/>
</clipPath>
</defs>
</svg>
