<svg width="106" height="46" viewBox="0 0 106 46" fill="none" xmlns="http://www.w3.org/2000/svg">
<path d="M26.8158 23.2321C26.8158 22.283 27.0102 21.4426 27.3989 20.7109C27.7991 19.9791 28.3365 19.4131 29.0111 19.0129C29.6972 18.6013 30.4518 18.3955 31.275 18.3955C32.0182 18.3955 32.6643 18.5441 33.2131 18.8414C33.7733 19.1273 34.2193 19.4874 34.5509 19.9219V18.5499H36.5232V28H34.5509V26.5936C34.2193 27.0396 33.7676 27.4112 33.1959 27.7084C32.6242 28.0057 31.9725 28.1544 31.2407 28.1544C30.4289 28.1544 29.6857 27.9485 29.0111 27.5369C28.3365 27.1139 27.7991 26.5307 27.3989 25.7875C27.0102 25.0329 26.8158 24.1811 26.8158 23.2321ZM34.5509 23.2664C34.5509 22.6146 34.4136 22.0486 34.1392 21.5684C33.8763 21.0882 33.5275 20.7223 33.093 20.4708C32.6585 20.2192 32.1897 20.0934 31.6867 20.0934C31.1836 20.0934 30.7148 20.2192 30.2803 20.4708C29.8458 20.7109 29.4913 21.071 29.2169 21.5513C28.954 22.0201 28.8225 22.5803 28.8225 23.2321C28.8225 23.8838 28.954 24.4555 29.2169 24.9471C29.4913 25.4388 29.8458 25.8161 30.2803 26.0791C30.7262 26.3306 31.195 26.4564 31.6867 26.4564C32.1897 26.4564 32.6585 26.3306 33.093 26.0791C33.5275 25.8276 33.8763 25.4617 34.1392 24.9814C34.4136 24.4898 34.5509 23.9181 34.5509 23.2664ZM42.8473 28.1544C41.9555 28.1544 41.1494 27.9543 40.429 27.5541C39.7087 27.1425 39.1427 26.5708 38.7311 25.839C38.3195 25.0958 38.1137 24.2382 38.1137 23.2664C38.1137 22.3059 38.3252 21.4541 38.7483 20.7109C39.1713 19.9677 39.7487 19.396 40.4805 18.9958C41.2123 18.5956 42.0298 18.3955 42.9331 18.3955C43.8364 18.3955 44.6539 18.5956 45.3857 18.9958C46.1174 19.396 46.6948 19.9677 47.1179 20.7109C47.5409 21.4541 47.7525 22.3059 47.7525 23.2664C47.7525 24.2268 47.5352 25.0786 47.1007 25.8218C46.6663 26.565 46.0717 27.1425 45.317 27.5541C44.5738 27.9543 43.7506 28.1544 42.8473 28.1544ZM42.8473 26.4564C43.3504 26.4564 43.8192 26.3364 44.2537 26.0963C44.6996 25.8561 45.0598 25.496 45.3342 25.0157C45.6086 24.5355 45.7458 23.9524 45.7458 23.2664C45.7458 22.5803 45.6143 22.0029 45.3514 21.5341C45.0884 21.0539 44.7396 20.6937 44.3051 20.4536C43.8707 20.2135 43.4019 20.0934 42.8988 20.0934C42.3957 20.0934 41.9269 20.2135 41.4924 20.4536C41.0693 20.6937 40.732 21.0539 40.4805 21.5341C40.229 22.0029 40.1032 22.5803 40.1032 23.2664C40.1032 24.284 40.3604 25.0729 40.875 25.6332C41.4009 26.182 42.0584 26.4564 42.8473 26.4564ZM53.1498 18.3955C53.8815 18.3955 54.5276 18.5441 55.0878 18.8414C55.6595 19.1273 56.1054 19.4874 56.4256 19.9219V18.5499H58.3979V28.1544C58.3979 29.0233 58.215 29.7951 57.8491 30.4697C57.4832 31.1558 56.9516 31.6932 56.2541 32.0819C55.568 32.4707 54.7448 32.665 53.7844 32.665C52.5038 32.665 51.4404 32.362 50.5943 31.756C49.7482 31.1615 49.268 30.3497 49.1536 29.3206H51.0917C51.2403 29.8123 51.5547 30.2067 52.035 30.504C52.5266 30.8127 53.1098 30.9671 53.7844 30.9671C54.5733 30.9671 55.2079 30.727 55.6881 30.2468C56.1798 29.7665 56.4256 29.0691 56.4256 28.1544V26.5765C56.094 27.0224 55.6424 27.3997 55.0707 27.7084C54.5104 28.0057 53.8701 28.1544 53.1498 28.1544C52.3265 28.1544 51.5719 27.9485 50.8859 27.5369C50.2113 27.1139 49.6739 26.5307 49.2737 25.7875C48.8849 25.0329 48.6905 24.1811 48.6905 23.2321C48.6905 22.283 48.8849 21.4426 49.2737 20.7109C49.6739 19.9791 50.2113 19.4131 50.8859 19.0129C51.5719 18.6013 52.3265 18.3955 53.1498 18.3955ZM56.4256 23.2664C56.4256 22.6146 56.2884 22.0486 56.014 21.5684C55.751 21.0882 55.4023 20.7223 54.9678 20.4708C54.5333 20.2192 54.0645 20.0934 53.5614 20.0934C53.0583 20.0934 52.5895 20.2192 52.155 20.4708C51.7205 20.7109 51.3661 21.071 51.0917 21.5513C50.8287 22.0201 50.6972 22.5803 50.6972 23.2321C50.6972 23.8838 50.8287 24.4555 51.0917 24.9471C51.3661 25.4388 51.7205 25.8161 52.155 26.0791C52.6009 26.3306 53.0697 26.4564 53.5614 26.4564C54.0645 26.4564 54.5333 26.3306 54.9678 26.0791C55.4023 25.8276 55.751 25.4617 56.014 24.9814C56.2884 24.4898 56.4256 23.9181 56.4256 23.2664ZM64.7221 28.1544C63.8302 28.1544 63.0241 27.9543 62.3038 27.5541C61.5835 27.1425 61.0175 26.5708 60.6059 25.839C60.1942 25.0958 59.9884 24.2382 59.9884 23.2664C59.9884 22.3059 60.1999 21.4541 60.623 20.7109C61.0461 19.9677 61.6235 19.396 62.3552 18.9958C63.087 18.5956 63.9045 18.3955 64.8078 18.3955C65.7111 18.3955 66.5286 18.5956 67.2604 18.9958C67.9922 19.396 68.5696 19.9677 68.9926 20.7109C69.4157 21.4541 69.6272 22.3059 69.6272 23.2664C69.6272 24.2268 69.41 25.0786 68.9755 25.8218C68.541 26.565 67.9464 27.1425 67.1918 27.5541C66.4486 27.9543 65.6253 28.1544 64.7221 28.1544ZM64.7221 26.4564C65.2252 26.4564 65.6939 26.3364 66.1284 26.0963C66.5744 25.8561 66.9345 25.496 67.2089 25.0157C67.4834 24.5355 67.6206 23.9524 67.6206 23.2664C67.6206 22.5803 67.4891 22.0029 67.2261 21.5341C66.9631 21.0539 66.6144 20.6937 66.1799 20.4536C65.7454 20.2135 65.2766 20.0934 64.7735 20.0934C64.2704 20.0934 63.8016 20.2135 63.3671 20.4536C62.9441 20.6937 62.6068 21.0539 62.3552 21.5341C62.1037 22.0029 61.9779 22.5803 61.9779 23.2664C61.9779 24.284 62.2352 25.0729 62.7497 25.6332C63.2757 26.182 63.9331 26.4564 64.7221 26.4564ZM79.7753 18.5499V28H77.8201V26.8852C77.5114 27.2739 77.1055 27.5827 76.6024 27.8113C76.1107 28.0286 75.5848 28.1372 75.0245 28.1372C74.2813 28.1372 73.6124 27.9828 73.0179 27.6741C72.4347 27.3654 71.9717 26.9081 71.6286 26.3021C71.2971 25.6961 71.1313 24.9643 71.1313 24.1068V18.5499H73.0693V23.8152C73.0693 24.6613 73.2808 25.313 73.7039 25.7704C74.127 26.2163 74.7044 26.4393 75.4361 26.4393C76.1679 26.4393 76.7453 26.2163 77.1684 25.7704C77.6029 25.313 77.8201 24.6613 77.8201 23.8152V18.5499H79.7753ZM90.6732 23.0434C90.6732 23.3978 90.6503 23.718 90.6046 24.0038H83.3841C83.4413 24.7585 83.7214 25.3645 84.2245 25.8218C84.7276 26.2792 85.345 26.5079 86.0768 26.5079C87.1287 26.5079 87.8719 26.0677 88.3064 25.1873H90.4159C90.1301 26.0562 89.6099 26.7709 88.8552 27.3311C88.112 27.8799 87.1859 28.1544 86.0768 28.1544C85.1735 28.1544 84.3617 27.9543 83.6414 27.5541C82.9325 27.1425 82.3722 26.5708 81.9606 25.839C81.5604 25.0958 81.3603 24.2382 81.3603 23.2664C81.3603 22.2945 81.5547 21.4426 81.9434 20.7109C82.3436 19.9677 82.8981 19.396 83.6071 18.9958C84.3274 18.5956 85.1506 18.3955 86.0768 18.3955C86.9686 18.3955 87.7633 18.5899 88.4608 18.9786C89.1582 19.3674 89.7013 19.9162 90.0901 20.6251C90.4788 21.3226 90.6732 22.1287 90.6732 23.0434ZM88.6323 22.426C88.6208 21.7056 88.3636 21.1282 87.8605 20.6937C87.3574 20.2592 86.7342 20.042 85.991 20.042C85.3164 20.042 84.739 20.2592 84.2588 20.6937C83.7786 21.1168 83.4927 21.6942 83.4012 22.426H88.6323ZM95.6845 28.1544C94.9413 28.1544 94.2724 28.0229 93.6778 27.7599C93.0947 27.4855 92.6316 27.1196 92.2886 26.6622C91.9456 26.1934 91.7626 25.6732 91.7398 25.1015H93.7636C93.7979 25.5017 93.9865 25.839 94.3296 26.1134C94.684 26.3764 95.1242 26.5079 95.6502 26.5079C96.199 26.5079 96.6221 26.405 96.9193 26.1992C97.2281 25.9819 97.3824 25.7075 97.3824 25.3759C97.3824 25.0215 97.2109 24.7585 96.8679 24.587C96.5363 24.4155 96.0046 24.2268 95.2729 24.021C94.564 23.8266 93.9865 23.638 93.5406 23.455C93.0947 23.2721 92.7059 22.9919 92.3744 22.6146C92.0542 22.2373 91.8941 21.7399 91.8941 21.1225C91.8941 20.6194 92.0428 20.162 92.3401 19.7504C92.6373 19.3274 93.0604 18.9958 93.6092 18.7557C94.1695 18.5156 94.8098 18.3955 95.5301 18.3955C96.6049 18.3955 97.4682 18.6699 98.1199 19.2188C98.7831 19.7561 99.1375 20.4936 99.1833 21.4312H97.2281C97.1938 21.0082 97.0222 20.6709 96.7135 20.4193C96.4048 20.1678 95.9875 20.042 95.4615 20.042C94.947 20.042 94.5525 20.1392 94.2781 20.3336C94.0037 20.5279 93.8665 20.7852 93.8665 21.1053C93.8665 21.3569 93.958 21.5684 94.1409 21.7399C94.3238 21.9114 94.5468 22.0486 94.8098 22.1516C95.0728 22.243 95.4615 22.3631 95.976 22.5117C96.6621 22.6947 97.2223 22.8833 97.6568 23.0777C98.1028 23.2606 98.4858 23.5351 98.8059 23.9009C99.1261 24.2668 99.2919 24.7528 99.3033 25.3588C99.3033 25.8962 99.1547 26.3764 98.8574 26.7994C98.5601 27.2225 98.1371 27.5541 97.5882 27.7942C97.0508 28.0343 96.4162 28.1544 95.6845 28.1544Z" fill="#FF2D55"/>
<path d="M77.7136 32.1733L76.5222 36.0124H75.6861L74.9127 33.1766L74.1393 36.0124H73.3032L72.1047 32.1733H72.913L73.7143 35.2599L74.5295 32.1733H75.3586L76.139 35.246L76.9333 32.1733H77.7136ZM79.9725 36.0751C79.6102 36.0751 79.2827 35.9938 78.99 35.8312C78.6974 35.664 78.4675 35.4318 78.3003 35.1345C78.133 34.8326 78.0494 34.4842 78.0494 34.0893C78.0494 33.6992 78.1354 33.3531 78.3072 33.0512C78.4791 32.7493 78.7137 32.517 79.0109 32.3544C79.3082 32.1919 79.6403 32.1106 80.0073 32.1106C80.3743 32.1106 80.7064 32.1919 81.0037 32.3544C81.3009 32.517 81.5355 32.7493 81.7074 33.0512C81.8793 33.3531 81.9652 33.6992 81.9652 34.0893C81.9652 34.4795 81.8769 34.8256 81.7004 35.1275C81.5239 35.4294 81.2824 35.664 80.9758 35.8312C80.6739 35.9938 80.3394 36.0751 79.9725 36.0751ZM79.9725 35.3853C80.1768 35.3853 80.3673 35.3365 80.5438 35.239C80.725 35.1414 80.8713 34.9951 80.9828 34.8C81.0942 34.6049 81.15 34.368 81.15 34.0893C81.15 33.8106 81.0966 33.5761 80.9897 33.3856C80.8829 33.1905 80.7412 33.0442 80.5647 32.9467C80.3882 32.8491 80.1977 32.8004 79.9934 32.8004C79.789 32.8004 79.5985 32.8491 79.422 32.9467C79.2502 33.0442 79.1131 33.1905 79.0109 33.3856C78.9088 33.5761 78.8577 33.8106 78.8577 34.0893C78.8577 34.5028 78.9622 34.8233 79.1712 35.0509C79.3849 35.2738 79.652 35.3853 79.9725 35.3853ZM83.5447 32.7307C83.6608 32.5356 83.8141 32.3846 84.0045 32.2778C84.1996 32.1663 84.4296 32.1106 84.6943 32.1106V32.9327H84.4923C84.1811 32.9327 83.9442 33.0117 83.7816 33.1696C83.6237 33.3276 83.5447 33.6016 83.5447 33.9918V36.0124H82.7504V32.1733H83.5447V32.7307ZM86.2188 30.8564V36.0124H85.4245V30.8564H86.2188ZM86.9968 34.0754C86.9968 33.6899 87.0758 33.3485 87.2337 33.0512C87.3963 32.7539 87.6146 32.524 87.8887 32.3614C88.1674 32.1942 88.4763 32.1106 88.8154 32.1106C89.0662 32.1106 89.3124 32.1663 89.5539 32.2778C89.8001 32.3846 89.9952 32.5286 90.1392 32.7098V30.8564H90.9405V36.0124H90.1392V35.4341C90.0091 35.6199 89.828 35.7732 89.5957 35.8939C89.3681 36.0147 89.1057 36.0751 88.8084 36.0751C88.474 36.0751 88.1674 35.9915 87.8887 35.8243C87.6146 35.6524 87.3963 35.4155 87.2337 35.1136C87.0758 34.807 86.9968 34.461 86.9968 34.0754ZM90.1392 34.0893C90.1392 33.8246 90.0835 33.5947 89.972 33.3996C89.8651 33.2045 89.7235 33.0558 89.547 32.9536C89.3704 32.8514 89.18 32.8004 88.9756 32.8004C88.7712 32.8004 88.5808 32.8514 88.4043 32.9536C88.2278 33.0512 88.0838 33.1975 87.9723 33.3926C87.8655 33.583 87.812 33.8106 87.812 34.0754C87.812 34.3402 87.8655 34.5724 87.9723 34.7722C88.0838 34.9719 88.2278 35.1252 88.4043 35.232C88.5854 35.3342 88.7759 35.3853 88.9756 35.3853C89.18 35.3853 89.3704 35.3342 89.547 35.232C89.7235 35.1298 89.8651 34.9812 89.972 34.7861C90.0835 34.5864 90.1392 34.3541 90.1392 34.0893Z" fill="#FF2D55"/>
<path fill-rule="evenodd" clip-rule="evenodd" d="M18.1944 22.9588C18.4414 22.2523 18.5757 21.4926 18.5757 20.7013C18.5757 16.9376 15.5367 13.8865 11.7879 13.8865C8.03903 13.8865 5 16.9376 5 20.7013C5 24.0131 7.35309 26.7732 10.4723 27.3882C11.4002 24.734 13.9182 22.831 16.8789 22.831C17.329 22.831 17.7688 22.8749 18.1944 22.9588Z" fill="#FF2D55"/>
<ellipse cx="16.8788" cy="29.6457" rx="5.0909" ry="5.11109" fill="#FF2D55"/>
</svg>
