<svg width="14" height="14" viewBox="0 0 14 14" fill="none" xmlns="http://www.w3.org/2000/svg">
<g clip-path="url(#clip0_119_971)">
<path d="M10.032 0.77102C9.42682 0.784774 8.83358 0.942191 8.30119 1.23029C7.76881 1.51839 7.31254 1.92892 6.97 2.42802C6.62808 1.92916 6.17252 1.51868 5.64085 1.23042C5.10918 0.942154 4.51662 0.784353 3.912 0.77002C2.83761 0.829023 1.82763 1.30115 1.09332 2.08765C0.359002 2.87415 -0.0427821 3.91411 -0.0280001 4.99002V5.06002C-0.0330012 5.11658 -0.0330012 5.17346 -0.0280001 5.23002C0.162 10.9 6.972 13.23 6.972 13.23C6.972 13.23 13.779 10.9 13.972 5.23002C13.976 5.17342 13.976 5.11662 13.972 5.06002V4.99002C13.9863 3.91435 13.5843 2.87478 12.8501 2.08855C12.1158 1.30232 11.1061 0.83026 10.032 0.77102Z" fill="#FF2D55"/>
</g>
<defs>
<clipPath id="clip0_119_971">
<rect width="14" height="14" fill="white"/>
</clipPath>
</defs>
</svg>
