<svg width="25" height="24" viewBox="0 0 25 24" fill="none" xmlns="http://www.w3.org/2000/svg">
<g clip-path="url(#clip0_217_1344)">
<path d="M12.5 22C13.6 22 14.5 21.1 14.5 20H10.5C10.5 21.1 11.39 22 12.5 22ZM18.5 16V11C18.5 7.93 16.86 5.36 14 4.68V4C14 3.17 13.33 2.5 12.5 2.5C11.67 2.5 11 3.17 11 4V4.68C8.12999 5.36 6.49999 7.92 6.49999 11V16L5.20999 17.29C4.57999 17.92 5.01999 19 5.90999 19H19.08C19.97 19 20.42 17.92 19.79 17.29L18.5 16Z" fill="white"/>
</g>
<defs>
<clipPath id="clip0_217_1344">
<rect width="24" height="24" fill="white" transform="translate(0.5)"/>
</clipPath>
</defs>
</svg>
