<svg width="12" height="12" viewBox="0 0 12 12" fill="none" xmlns="http://www.w3.org/2000/svg">
<g clip-path="url(#clip0_119_1315)">
<path d="M3 10H9C9.275 10 9.5 10.225 9.5 10.5C9.5 10.775 9.275 11 9 11H3C2.725 11 2.5 10.775 2.5 10.5C2.5 10.225 2.725 10 3 10ZM6 3.5C5.45 3.5 5 3.95 5 4.5C5 5.05 5.45 5.5 6 5.5C6.55 5.5 7 5.05 7 4.5C7 3.95 6.55 3.5 6 3.5ZM6 1C7.635 1 9.5 2.23 9.5 4.575C9.5 6.065 8.435 7.635 6.305 9.27C6.125 9.41 5.875 9.41 5.695 9.27C3.565 7.63 2.5 6.065 2.5 4.575C2.5 2.23 4.365 1 6 1Z" fill="#8E8E93"/>
</g>
<defs>
<clipPath id="clip0_119_1315">
<rect width="12" height="12" fill="white"/>
</clipPath>
</defs>
</svg>
