<svg width="14" height="14" viewBox="0 0 14 14" fill="none" xmlns="http://www.w3.org/2000/svg">
<g clip-path="url(#clip0_119_963)">
<path d="M7.83036 0.687955L9.58436 4.38796L13.1764 4.76896C13.3582 4.7866 13.5306 4.85802 13.6717 4.97411C13.8127 5.0902 13.9159 5.24569 13.9682 5.42073C14.0205 5.59576 14.0194 5.7824 13.9651 5.95682C13.9108 6.13124 13.8057 6.28551 13.6634 6.39996L10.7994 8.75496L11.6854 12.714C11.725 12.8899 11.7119 13.0737 11.6478 13.2422C11.5837 13.4108 11.4714 13.5569 11.3249 13.6621C11.1785 13.7673 11.0042 13.8271 10.824 13.834C10.6438 13.8409 10.4655 13.7947 10.3114 13.701L6.99936 11.686L3.68436 13.7C3.53017 13.7935 3.35189 13.8396 3.17168 13.8326C2.99148 13.8257 2.8173 13.7659 2.67079 13.6607C2.52429 13.5555 2.41193 13.4096 2.34767 13.2411C2.28341 13.0726 2.27009 12.889 2.30936 12.713L3.19936 8.75496L0.335364 6.39996C0.193985 6.2852 0.0898832 6.13103 0.0362685 5.95701C-0.0173462 5.78299 -0.0180567 5.59697 0.0342273 5.42255C0.0865113 5.24813 0.189433 5.09317 0.329931 4.97733C0.47043 4.8615 0.642172 4.79002 0.823364 4.77196L4.41436 4.39095L6.16836 0.687955C6.24303 0.530781 6.36074 0.398005 6.50783 0.305036C6.65492 0.212068 6.82536 0.16272 6.99936 0.16272C7.17337 0.16272 7.34381 0.212068 7.4909 0.305036C7.63799 0.398005 7.7557 0.530781 7.83036 0.687955Z" fill="#FF9F0A"/>
</g>
<defs>
<clipPath id="clip0_119_963">
<rect width="14" height="14" fill="white"/>
</clipPath>
</defs>
</svg>
