<svg width="14" height="14" viewBox="0 0 14 14" fill="none" xmlns="http://www.w3.org/2000/svg">
<g clip-path="url(#clip0_122_2207)">
<path d="M13.1764 4.77208L9.58435 4.39108L7.83035 0.688077C7.75569 0.530903 7.63798 0.398127 7.49089 0.305158C7.3438 0.21219 7.17336 0.162842 6.99935 0.162842C6.82535 0.162842 6.65491 0.21219 6.50782 0.305158C6.36073 0.398127 6.24302 0.530903 6.16835 0.688077L4.41435 4.38808L0.822352 4.77208C0.641241 4.79031 0.469625 4.86192 0.329265 4.97782C0.188904 5.09372 0.0861239 5.24869 0.0339566 5.42308C-0.0182106 5.59747 -0.0174147 5.78342 0.0362436 5.95736C0.0899018 6.1313 0.194005 6.28538 0.335352 6.40008L3.19935 8.75408L2.31335 12.7141C2.27408 12.8901 2.2874 13.0738 2.35165 13.2423C2.41591 13.4108 2.52828 13.5567 2.67478 13.6618C2.82129 13.767 2.99547 13.8268 3.17567 13.8338C3.35587 13.8407 3.53416 13.7946 3.68835 13.7011L6.99935 11.6861L10.3154 13.7001C10.4695 13.7938 10.6478 13.8401 10.828 13.8331C11.0082 13.8262 11.1824 13.7664 11.3289 13.6612C11.4754 13.556 11.5877 13.41 11.6518 13.2414C11.7159 13.0728 11.7289 12.889 11.6894 12.7131L10.7994 8.75408L13.6634 6.40008C13.8047 6.28538 13.9088 6.1313 13.9625 5.95736C14.0161 5.78342 14.0169 5.59747 13.9647 5.42308C13.9126 5.24869 13.8098 5.09372 13.6694 4.97782C13.5291 4.86192 13.3575 4.79031 13.1764 4.77208ZM9.37635 7.90008C9.30446 7.95953 9.25036 8.03766 9.22001 8.12588C9.18966 8.2141 9.18425 8.30898 9.20435 8.40008L9.69335 11.0301L7.58835 9.68408C7.48461 9.64464 7.37432 9.6253 7.26335 9.62708V3.46608L8.47935 5.77808C8.51678 5.85677 8.57376 5.92456 8.64483 5.97497C8.7159 6.02539 8.79871 6.05676 8.88535 6.06608L11.1284 6.30408L9.37635 7.90008Z" fill="#FF9F0A"/>
</g>
<defs>
<clipPath id="clip0_122_2207">
<rect width="14" height="14" fill="white"/>
</clipPath>
</defs>
</svg>
