<svg width="25" height="24" viewBox="0 0 25 24" fill="none" xmlns="http://www.w3.org/2000/svg">
<g clip-path="url(#clip0_119_1102)">
<path d="M11.5 13V3.58998C11.5 3.09998 10.87 2.89998 10.59 3.29998L4.05 12.71C3.82 13.04 4.06 13.5 4.46 13.5H11C11.28 13.5 11.5 13.28 11.5 13ZM21.49 12.98C21.22 7.06997 16.4 2.31998 13.9 1.22998C13.53 1.06998 13.13 1.42998 13.23 1.81998C13.53 2.94998 13.99 5.09998 13.99 7.49998C13.99 9.93998 13.5 11.89 13.21 12.85C13.11 13.17 13.35 13.5 13.69 13.5H20.97C21.26 13.5 21.5 13.26 21.49 12.98ZM21.12 15H3.88C3.15 15 2.66 15.76 2.96 16.42C3.39 17.34 4.03 18.13 4.82 18.73C5.2 18.57 5.56 18.35 5.88 18.1C6.23 17.81 6.75 17.81 7.11 18.1C7.78 18.63 8.6 19 9.5 19C10.4 19 11.22 18.63 11.89 18.09C12.24 17.81 12.76 17.81 13.11 18.09C13.78 18.63 14.6 19 15.5 19C16.4 19 17.22 18.63 17.89 18.09C18.24 17.8 18.76 17.81 19.12 18.09C19.44 18.35 19.79 18.57 20.18 18.72C20.97 18.12 21.61 17.33 22.04 16.41C22.34 15.76 21.85 15 21.12 15ZM22.5 22C22.5 21.45 22.05 21 21.5 21C20.63 21 19.77 20.76 18.97 20.3C18.68 20.14 18.32 20.13 18.03 20.3C16.44 21.2 14.56 21.2 12.97 20.3C12.68 20.14 12.32 20.14 12.03 20.3C10.44 21.2 8.56 21.2 6.97 20.3C6.68 20.14 6.32 20.14 6.03 20.3C5.23 20.76 4.37 21 3.5 21C2.95 21 2.5 21.45 2.5 22C2.5 22.55 2.95 23 3.5 23C4.65 23 5.8 22.69 6.83 22.06C8.49 23.17 10.61 23.07 12.41 22.2C14.32 23.25 16.58 23.27 18.5 22.25C19.45 22.75 20.47 23 21.5 23C22.05 23 22.5 22.55 22.5 22Z" fill="url(#paint0_linear_119_1102)"/>
</g>
<defs>
<linearGradient id="paint0_linear_119_1102" x1="1.82204" y1="-11.3045" x2="28.8934" y2="-10.163" gradientUnits="userSpaceOnUse">
<stop stop-color="#FF9F0A"/>
<stop offset="1" stop-color="#F87D39"/>
</linearGradient>
<clipPath id="clip0_119_1102">
<rect width="24" height="24" fill="white" transform="translate(0.5)"/>
</clipPath>
</defs>
</svg>
