<svg width="24" height="24" viewBox="0 0 24 24" fill="none" xmlns="http://www.w3.org/2000/svg">
<g clip-path="url(#clip0_217_1339)">
<path d="M15.5 14H14.71L14.43 13.73C15.63 12.33 16.25 10.42 15.91 8.39002C15.44 5.61002 13.12 3.39002 10.32 3.05002C6.08999 2.53002 2.52999 6.09001 3.04999 10.32C3.38999 13.12 5.60999 15.44 8.38999 15.91C10.42 16.25 12.33 15.63 13.73 14.43L14 14.71V15.5L18.25 19.75C18.66 20.16 19.33 20.16 19.74 19.75C20.15 19.34 20.15 18.67 19.74 18.26L15.5 14ZM9.49999 14C7.00999 14 4.99999 11.99 4.99999 9.50002C4.99999 7.01002 7.00999 5.00002 9.49999 5.00002C11.99 5.00002 14 7.01002 14 9.50002C14 11.99 11.99 14 9.49999 14Z" fill="white"/>
</g>
<defs>
<clipPath id="clip0_217_1339">
<rect width="24" height="24" fill="white"/>
</clipPath>
</defs>
</svg>
