<svg width="16" height="16" viewBox="0 0 16 16" fill="none" xmlns="http://www.w3.org/2000/svg">
<g clip-path="url(#clip0_122_1894)">
<path d="M15.3333 8L13.7066 6.14L13.9333 3.68L11.5266 3.13333L10.2666 1L7.99996 1.97333L5.73329 1L4.47329 3.12667L2.06663 3.66667L2.29329 6.13333L0.666626 8L2.29329 9.86L2.06663 12.3267L4.47329 12.8733L5.73329 15L7.99996 14.02L10.2666 14.9933L11.5266 12.8667L13.9333 12.32L13.7066 9.86L15.3333 8ZM6.25329 10.6733L4.66663 9.07333C4.40663 8.81333 4.40663 8.39333 4.66663 8.13333L4.71329 8.08667C4.97329 7.82667 5.39996 7.82667 5.65996 8.08667L6.73329 9.16667L10.1666 5.72667C10.4266 5.46667 10.8533 5.46667 11.1133 5.72667L11.16 5.77333C11.42 6.03333 11.42 6.45333 11.16 6.71333L7.21329 10.6733C6.93996 10.9333 6.51996 10.9333 6.25329 10.6733Z" fill="#FF9F0A"/>
</g>
<defs>
<clipPath id="clip0_122_1894">
<rect width="16" height="16" fill="white"/>
</clipPath>
</defs>
</svg>
